<svg width="112" height="60" viewBox="0 0 112 60" fill="none" xmlns="http://www.w3.org/2000/svg">
<mask id="mask0_75_289" style="mask-type:luminance" maskUnits="userSpaceOnUse" x="0" y="0" width="112" height="60">
<path d="M0 0H111.245V60H0V0Z" fill="white"/>
</mask>
<g mask="url(#mask0_75_289)">
<path d="M83.62 56.3557C83.3477 52.1819 82.146 48.1073 80.102 44.474C80.102 44.474 80.102 44.474 80.1006 44.474C82.7535 42.7398 85.8142 41.8264 89.021 41.8264H90.0913C90.098 41.8264 90.106 41.8264 90.1127 41.8264C90.1194 41.8264 90.1261 41.8264 90.1328 41.8264H91.2058C99.6057 41.8264 106.545 48.1945 107.453 56.3557H83.62ZM31.4056 56.3557C31.6725 52.7814 32.724 49.2983 34.485 46.1894C38.8024 38.566 46.9153 33.8288 55.6653 33.8195C55.6733 33.8195 55.6827 33.8208 55.6908 33.8208C55.6988 33.8208 55.7096 33.8195 55.7189 33.8195C62.213 33.8275 68.3168 36.3597 72.9105 40.9533C74.4891 42.5319 75.8423 44.3157 76.9327 46.2564C78.6723 49.3466 79.7104 52.8055 79.9746 56.3557H31.4056ZM20.0336 41.8264H21.1066C21.1133 41.8264 21.12 41.8264 21.128 41.8264C21.1347 41.8264 21.1414 41.8264 21.1481 41.8264H22.2197C25.4681 41.8264 28.5677 42.7639 31.2434 44.5424C29.2222 48.1582 28.0325 52.2047 27.7616 56.3557H3.78761C4.69427 48.1945 11.635 41.8264 20.0336 41.8264ZM21.128 21.2833C25.7887 21.2833 29.5816 25.0762 29.5816 29.7368C29.5816 34.3922 25.7994 38.1784 21.1481 38.1904H21.1066C16.4539 38.1784 12.6731 34.3922 12.6731 29.7368C12.6731 25.0762 16.466 21.2833 21.128 21.2833ZM42.4545 16.9485C42.4545 9.64967 48.392 3.71217 55.6908 3.71217C62.9883 3.71217 68.9258 9.64967 68.9258 16.9485C68.9258 24.2406 62.999 30.1741 55.7096 30.1835C55.7029 30.1835 55.6961 30.1835 55.6894 30.1835C55.6841 30.1835 55.6787 30.1835 55.6733 30.1835C48.3826 30.1754 42.4545 24.2406 42.4545 16.9485ZM90.1127 21.2833C94.7734 21.2833 98.5663 25.0762 98.5663 29.7368C98.5663 34.3922 94.7855 38.1784 90.1328 38.1904H90.0913C85.44 38.1784 81.6591 34.3922 81.6591 29.7368C81.6591 25.0762 85.4507 21.2833 90.1127 21.2833ZM97.5805 39.2339C100.393 37.0182 102.202 33.5861 102.202 29.7368C102.202 23.0711 96.7785 17.6473 90.1127 17.6473C83.4456 17.6473 78.0231 23.0711 78.0231 29.7368C78.0231 33.5821 79.8297 37.0115 82.6369 39.2272C81.0516 39.761 79.536 40.4986 78.1157 41.4281C77.3123 40.3538 76.4338 39.3345 75.4816 38.3822C72.2721 35.1727 68.4201 32.8404 64.2168 31.5019C69.2061 28.5673 72.5618 23.1435 72.5618 16.9485C72.5618 7.64457 64.9934 0.0761719 55.6908 0.0761719C46.3869 0.0761719 38.8185 7.64457 38.8185 16.9485C38.8185 23.1529 42.1849 28.5848 47.1862 31.5153C41.6457 33.2883 36.7369 36.7607 33.2189 41.4911C31.7704 40.5335 30.224 39.7731 28.6025 39.2272C31.4097 37.0115 33.2176 33.5821 33.2176 29.7368C33.2176 23.0711 27.7938 17.6473 21.128 17.6473C14.4609 17.6473 9.03708 23.0711 9.03708 29.7368C9.03708 33.5861 10.8477 37.0182 13.6589 39.2339C5.7565 41.9002 0.0510254 49.3828 0.0510254 58.1743C0.0510254 59.1776 0.865135 59.9917 1.86835 59.9917H29.3147C29.3509 59.9917 29.3871 59.989 29.4233 59.9863C29.4555 59.9876 29.4877 59.9917 29.5199 59.9917H81.8603C81.8697 59.9917 81.8791 59.9903 81.8871 59.9903C81.9005 59.9903 81.9126 59.9917 81.9247 59.9917H109.371C110.376 59.9917 111.19 59.1776 111.19 58.1743C111.19 49.3828 105.484 41.9002 97.5805 39.2339Z" fill="#113563"/>
<path d="M55.7095 30.2346H55.6988L55.6894 30.1836V30.1327L55.7001 30.134C62.9694 30.1233 68.8761 24.2086 68.8761 16.9487C68.8761 9.67802 62.96 3.76332 55.6907 3.76332C48.4201 3.76332 42.5054 9.67802 42.5054 16.9487C42.5054 24.2099 48.412 30.1246 55.6733 30.134L55.6894 30.1836L55.6827 30.2346C48.3557 30.2252 42.4034 24.2649 42.4034 16.9487C42.4034 9.62303 48.3637 3.66273 55.6907 3.66273C63.0164 3.66273 68.9767 9.62303 68.9767 16.9487C68.9767 24.2649 63.0244 30.2239 55.7095 30.2346ZM21.1266 21.3344C16.4941 21.3344 12.724 25.1045 12.724 29.737C12.724 34.3588 16.4847 38.1289 21.1065 38.1397H21.1481C25.7698 38.1289 29.5306 34.3588 29.5306 29.737C29.5306 25.1045 25.7605 21.3344 21.1266 21.3344ZM21.1481 38.2416H21.1065C16.4284 38.2295 12.6234 34.4151 12.6234 29.737C12.6234 25.0482 16.4378 21.2338 21.1266 21.2338C25.8168 21.2338 29.6312 25.0482 29.6312 29.737C29.6312 34.4151 25.8262 38.2295 21.1481 38.2416ZM90.1127 21.3344C85.4788 21.3344 81.7087 25.1045 81.7087 29.737C81.7087 34.3588 85.4694 38.1289 90.0912 38.1397H90.1328C94.7546 38.1289 98.5153 34.3588 98.5153 29.737C98.5153 25.1045 94.7465 21.3344 90.1127 21.3344ZM90.1341 38.2416H90.0912C85.4131 38.2295 81.6081 34.4151 81.6081 29.737C81.6081 25.0482 85.4225 21.2338 90.1127 21.2338C94.8015 21.2338 98.6172 25.0482 98.6172 29.737C98.6172 34.4151 94.8109 38.2295 90.1341 38.2416ZM31.4606 56.3049H79.9209C79.6499 52.7909 78.6025 49.3266 76.8884 46.2808C75.8007 44.3454 74.4501 42.5656 72.8742 40.9897C68.2913 36.4068 62.1982 33.8787 55.7189 33.8706H55.6652C46.934 33.88 38.8358 38.6091 34.5292 46.215C32.7937 49.2783 31.7328 52.7668 31.4606 56.3049ZM80.0295 56.4055H31.3506L31.3546 56.3518C31.6215 52.7802 32.6891 49.2582 34.4421 46.1654C38.7648 38.5286 46.8978 33.7781 55.6652 33.77H55.7189C62.2264 33.7767 68.3436 36.3156 72.9466 40.9186C74.5279 42.4999 75.8838 44.2877 76.9769 46.2311C78.7057 49.3052 79.7613 52.8057 80.0255 56.3518L80.0295 56.4055ZM3.84388 56.3049H27.7132C27.9882 52.1954 29.1859 48.137 31.1762 44.5586C28.5193 42.8044 25.4225 41.8776 22.2197 41.8776H20.0335C11.7369 41.8776 4.78675 48.0753 3.84388 56.3049ZM27.8085 56.4068H3.72988L3.73659 56.3505C4.17918 52.3711 6.07162 48.6922 9.06652 45.9937C12.0842 43.2738 15.9791 41.7757 20.0335 41.7757H22.2197C25.4587 41.7757 28.5877 42.7185 31.2715 44.501L31.3104 44.5265L31.2875 44.5667C29.2825 48.1558 28.0807 52.233 27.8112 56.3599L27.8085 56.4068ZM83.6668 56.3049H107.395C106.453 48.0753 99.5024 41.8776 91.2057 41.8776H89.0209C85.861 41.8776 82.8004 42.7802 80.169 44.4902C82.1808 48.0806 83.3905 52.1646 83.6668 56.3049ZM107.509 56.4068H83.5716L83.5689 56.3599C83.2993 52.2022 82.0842 48.1008 80.0577 44.4983L80.0349 44.4581L80.0738 44.4312C82.732 42.6944 85.8248 41.7757 89.0209 41.7757H91.2057C95.2602 41.7757 99.155 43.2738 102.173 45.9937C105.168 48.6922 107.06 52.3711 107.503 56.3505L107.509 56.4068ZM81.8871 59.9395C81.8951 59.9395 81.9018 59.9409 81.9085 59.9409C81.9139 59.9409 81.9193 59.9409 81.9246 59.9409H109.371C110.346 59.9409 111.139 59.1482 111.139 58.1745C111.139 49.6136 105.684 42.0211 97.5644 39.281L97.4772 39.2515L97.5496 39.1938C100.475 36.8883 102.151 33.4414 102.151 29.737C102.151 23.0994 96.7503 17.6984 90.1127 17.6984C83.4737 17.6984 78.0727 23.0994 78.0727 29.737C78.0727 33.4387 79.7478 36.8829 82.6676 39.1885L82.7414 39.2461L82.6529 39.2757C81.077 39.8068 79.5601 40.5444 78.1438 41.4699L78.1035 41.4967L78.0754 41.4591C77.268 40.3795 76.3841 39.3561 75.4453 38.4186C72.2908 35.2641 68.4026 32.8889 64.2006 31.5503L64.0933 31.5168L64.1912 31.4591C69.3227 28.4401 72.5121 22.8808 72.5121 16.9487C72.5121 7.67292 64.9651 0.127322 55.6907 0.127322C46.415 0.127322 38.8694 7.67292 38.8694 16.9487C38.8694 22.8915 42.0654 28.4562 47.2116 31.4725L47.3095 31.5289L47.2022 31.5637C41.5907 33.3596 36.7704 36.8025 33.2591 41.5208L33.231 41.5597L33.1921 41.5329C31.7476 40.578 30.1985 39.8188 28.5864 39.2757L28.4979 39.2461L28.5716 39.1885C31.4914 36.8829 33.1666 33.4387 33.1666 29.737C33.1666 23.0994 27.7656 17.6984 21.1266 17.6984C14.489 17.6984 9.08798 23.0994 9.08798 29.737C9.08798 33.4414 10.7658 36.8883 13.6896 39.1938L13.7634 39.2515L13.6749 39.281C5.55526 42.0211 0.10059 49.6136 0.10059 58.1745C0.10059 59.1482 0.89324 59.9409 1.86829 59.9409H29.3146C29.3401 59.9409 29.3656 59.9395 29.3911 59.9382L29.4193 59.9355L29.4568 59.9382C29.4769 59.9395 29.4984 59.9409 29.5198 59.9409H81.8602L81.8871 59.9395ZM109.371 60.0428H81.9246C81.9166 60.0428 81.9085 60.0415 81.9005 60.0415L81.8871 60.0401C81.8723 60.0415 81.8669 60.0415 81.8602 60.0415H29.5198C29.4957 60.0415 29.4729 60.0401 29.4501 60.0388L29.4193 60.0375L29.3978 60.0388C29.3696 60.0401 29.3428 60.0428 29.3146 60.0428H1.86829C0.838251 60.0428 0 59.2046 0 58.1745C0 49.6016 5.4426 41.9943 13.5542 39.2153C10.6505 36.891 8.98739 33.4428 8.98739 29.737C8.98739 23.0431 14.4327 17.5978 21.1266 17.5978C27.8219 17.5978 33.2672 23.0431 33.2672 29.737C33.2672 33.4387 31.6068 36.887 28.7071 39.2099C30.2803 39.7478 31.7945 40.4921 33.2068 41.4229C36.7047 36.7368 41.4928 33.3087 47.0641 31.5021C44.6003 30.0361 42.5335 27.9573 41.0823 25.4854C39.5681 22.9036 38.7674 19.9516 38.7674 16.9487C38.7674 7.61793 46.3586 0.0253906 55.6907 0.0253906C65.0215 0.0253906 72.6127 7.61793 72.6127 16.9487C72.6127 19.9476 71.8146 22.8956 70.3044 25.4734C68.8573 27.9438 66.7959 30.0214 64.3388 31.4886C68.5153 32.8379 72.3779 35.2078 75.5177 38.3475C76.4472 39.277 77.3256 40.2909 78.1277 41.3599C79.5131 40.4586 80.9952 39.7357 82.5322 39.2099C79.6325 36.887 77.9721 33.4387 77.9721 29.737C77.9721 23.0431 83.4187 17.5978 90.1127 17.5978C96.8066 17.5978 102.253 23.0431 102.253 29.737C102.253 33.4428 100.589 36.891 97.6851 39.2153C105.797 41.9943 111.239 49.6016 111.239 58.1745C111.239 59.2046 110.401 60.0428 109.371 60.0428Z" fill="#113563"/>
</g>
</svg>
