<svg width="57" height="57" viewBox="0 0 57 57" fill="none" xmlns="http://www.w3.org/2000/svg">
<path d="M55.9219 37.0048H0.931273C0.41635 37.0048 0 36.5815 0 36.0579V20.1496C0 19.626 0.41635 19.2026 0.931273 19.2026H55.9219C56.4368 19.2026 56.8531 19.626 56.8531 20.1496V36.0579C56.8531 36.5815 56.4368 37.0048 55.9219 37.0048ZM1.86324 35.1103H54.9899V21.0972H1.86324V35.1103Z" fill="white"/>
<mask id="mask0_135_1019" style="mask-type:luminance" maskUnits="userSpaceOnUse" x="1" y="0" width="55" height="57">
<path d="M1.90259 0H55.0189V56.117H1.90259V0Z" fill="white"/>
</mask>
<g mask="url(#mask0_135_1019)">
<path d="M28.4257 56.2015C16.1957 56.2015 5.57741 48.2169 2.00259 36.3352C1.91643 36.0471 1.9695 35.7352 2.14459 35.4941C2.31968 35.2523 2.59748 35.11 2.89319 35.11H53.9643C54.26 35.11 54.5371 35.2523 54.7136 35.4941C54.8894 35.7352 54.9418 36.0471 54.8549 36.3352C51.2808 48.2169 40.659 56.2015 28.4257 56.2015ZM4.1836 37.0045C7.857 47.4066 17.4448 54.307 28.425 54.307C39.4079 54.307 48.9978 47.4073 52.6725 37.0045H4.1836ZM53.9822 21.0969C53.9767 21.0969 53.9691 21.0969 53.9636 21.0969H2.89319C2.59816 21.0969 2.32037 20.9546 2.14459 20.7128C1.96812 20.4717 1.91643 20.1598 2.00259 19.8717C5.57672 7.98934 16.1957 0.00537109 28.4257 0.00537109C40.5991 0.00537109 51.1774 7.91084 54.8018 19.6986C54.8735 19.8332 54.9135 19.9867 54.9135 20.15C54.9135 20.6728 54.4972 21.0969 53.9822 21.0969ZM4.1836 19.2024H52.6732C48.9991 8.80028 39.4093 1.89991 28.4257 1.89991C17.4461 1.89991 7.85906 8.80028 4.1836 19.2024Z" fill="white"/>
</g>
<mask id="mask1_135_1019" style="mask-type:luminance" maskUnits="userSpaceOnUse" x="15" y="0" width="27" height="57">
<path d="M15.6669 0H41.2545V56.117H15.6669V0Z" fill="white"/>
</mask>
<g mask="url(#mask1_135_1019)">
<path d="M28.4257 56.2015C22.512 56.2015 17.4227 48.1594 15.7629 36.1901C15.7249 35.9181 15.8056 35.6434 15.9814 35.4359C16.1578 35.2292 16.415 35.11 16.6845 35.11H40.1683C40.4378 35.11 40.6935 35.2285 40.8721 35.4359C41.0478 35.6434 41.1278 35.9181 41.0906 36.1901C39.4355 48.1594 34.3449 56.2015 28.4257 56.2015ZM17.7681 37.0045C19.408 47.2475 23.7211 54.307 28.425 54.307C33.1358 54.307 37.4489 47.2482 39.084 37.0045H17.7681ZM40.1869 21.0969C40.1827 21.0969 40.1752 21.0969 40.1683 21.0969H16.6845C16.415 21.0969 16.1585 20.977 15.9814 20.771C15.8056 20.5635 15.7249 20.2888 15.7629 20.0168C17.4234 8.04751 22.512 0.00537109 28.4257 0.00537109C34.3146 0.00537109 39.3831 7.9641 41.0644 19.8318C41.1002 19.9313 41.1188 20.0385 41.1188 20.15C41.1188 20.6728 40.7025 21.0969 40.1869 21.0969ZM17.7681 19.2024H39.0853C37.4489 8.95938 33.1358 1.89991 28.4257 1.89991C23.7211 1.89991 19.4087 8.95868 17.7681 19.2024Z" fill="white"/>
</g>
<path d="M28.4255 45.136C18.6317 45.136 9.50228 41.909 4.59638 36.7132C4.3372 36.4406 4.26482 36.0362 4.41096 35.6864C4.55709 35.3381 4.89555 35.1117 5.26778 35.1117H51.5833C51.9555 35.1117 52.294 35.3381 52.4401 35.6864C52.5862 36.0362 52.5139 36.4406 52.2561 36.7139C47.3577 41.909 38.2256 45.136 28.4255 45.136ZM7.68247 37.0048C12.5091 40.8927 20.1985 43.2414 28.4255 43.2414C36.6588 43.2414 44.3495 40.8934 49.1713 37.0048H7.68247ZM51.6019 21.0972C51.5964 21.0972 51.5888 21.0972 51.5833 21.0972H5.26778C4.89555 21.0972 4.55709 20.8708 4.41096 20.521C4.26482 20.1727 4.3372 19.7676 4.59707 19.4942C9.50573 14.2984 18.6351 11.0701 28.4255 11.0701C38.1539 11.0701 47.2268 14.2529 52.1526 19.3849C52.3836 19.5573 52.5332 19.8362 52.5332 20.1495C52.5332 20.6731 52.1168 21.0972 51.6019 21.0972ZM7.68385 19.2026H49.1707C44.3454 15.3147 36.6553 12.9646 28.4248 12.9646C20.2012 12.966 12.5119 15.3147 7.68385 19.2026Z" fill="white"/>
<path fill-rule="evenodd" clip-rule="evenodd" d="M15.0065 26.8978C14.9369 27.1655 14.8618 27.4312 14.7777 27.6954L13.5955 31.4018C13.4659 31.8132 13.4997 31.7312 13.0647 31.7312H12.363C11.6978 31.7312 11.8322 31.7466 11.5606 31.0555L9.13764 24.2855C9.03079 23.9953 9.21071 23.9757 9.52159 23.9757H10.783C11.1015 23.9757 11.1015 24.0731 11.1966 24.3703L12.3581 28.022L12.667 29.121L13.0047 28.0241L14.189 24.2596C14.2951 23.9302 14.32 23.9743 14.7246 23.9743H15.4753C15.7951 23.9743 15.791 23.9904 15.8799 24.2806L17.3833 29.161L18.8922 24.4103C19.0618 23.8853 19.0508 23.9736 19.5967 23.9736H20.5431C21.2214 23.9736 21.0677 24.0563 20.8265 24.7124L18.4249 31.1635C18.1988 31.8083 18.3235 31.7305 17.619 31.7305H17.1358C16.4982 31.7305 16.4927 31.8083 16.3018 31.1824L15.2264 27.6772C15.1506 27.4157 15.0727 27.1592 15.0065 26.8978Z" fill="white"/>
<path fill-rule="evenodd" clip-rule="evenodd" d="M27.9422 26.8978C27.8719 27.1655 27.7954 27.4312 27.712 27.6954L26.5298 31.4018C26.3982 31.8132 26.4354 31.7312 25.9997 31.7312H25.2952C24.6321 31.7312 24.7679 31.7466 24.4963 31.0555L22.0692 24.2855C21.9658 23.9953 22.143 23.9757 22.4566 23.9757H23.7181C24.0379 23.9757 24.0352 24.0731 24.1324 24.3703L25.2952 28.022L25.602 29.121L25.9398 28.0241L27.124 24.2596C27.2302 23.9302 27.2536 23.9743 27.6596 23.9743H28.4117C28.7301 23.9743 28.7281 23.9904 28.8156 24.2806L30.3183 29.161L31.8293 24.4103C31.9989 23.8853 31.9872 23.9736 32.5317 23.9736H33.4803C34.1585 23.9736 34.0041 24.0563 33.7587 24.7124L31.3565 31.1635C31.1338 31.8083 31.2586 31.7305 30.5541 31.7305H30.0667C29.4326 31.7305 29.4277 31.8083 29.2382 31.1824L28.1635 27.6772C28.0856 27.4157 28.0098 27.1592 27.9422 26.8978Z" fill="white"/>
<path fill-rule="evenodd" clip-rule="evenodd" d="M40.5272 26.8977C40.4569 27.1655 40.3797 27.4311 40.2949 27.6953L39.1148 31.4017C38.9859 31.8131 39.019 31.7311 38.5833 31.7311H37.883C37.2199 31.7311 37.3536 31.7493 37.0799 31.0597L34.6563 24.2897C34.5501 23.9953 34.7307 23.9756 35.0416 23.9756H36.3024C36.6215 23.9756 36.6215 24.0731 36.7167 24.3752L37.883 28.0227L38.1877 29.1217L38.5275 28.0248L39.7118 24.2602C39.8131 23.9357 39.8414 23.9756 40.2425 23.9756H40.9953C41.3179 23.9756 41.3117 23.9918 41.4027 24.2812L42.9026 29.1616L44.4164 24.4109C44.5825 23.8866 44.5708 23.9742 45.1209 23.9742H46.0673C46.7456 23.9742 46.5919 24.057 46.3479 24.713L43.9442 31.1641C43.7174 31.8089 43.8422 31.7311 43.137 31.7311H42.6538C42.0196 31.7311 42.0148 31.8089 41.8218 31.183L40.7506 27.6785C40.6706 27.4199 40.5934 27.1591 40.5272 26.8977Z" fill="white"/>
</svg>
