<svg width="62" height="56" viewBox="0 0 62 56" fill="none" xmlns="http://www.w3.org/2000/svg">
<mask id="mask0_135_1038" style="mask-type:luminance" maskUnits="userSpaceOnUse" x="7" y="43" width="48" height="13">
<path d="M7.22668 43.2688H54.3898V55.2554H7.22668V43.2688Z" fill="white"/>
</mask>
<g mask="url(#mask0_135_1038)">
<path d="M50.2945 55.2019H11.3222C9.11292 55.2019 7.31519 53.3739 7.31519 51.1275V47.412C7.31519 45.1656 9.11292 43.3376 11.3222 43.3376H50.2945C52.5038 43.3376 54.3015 45.1656 54.3015 47.412V51.1275C54.3015 53.3739 52.5038 55.2019 50.2945 55.2019ZM11.3222 45.2955C10.1745 45.2955 9.23995 46.245 9.23995 47.412V51.1275C9.23995 52.2945 10.1745 53.2448 11.3222 53.2448H50.2945C51.4422 53.2448 52.3768 52.2945 52.3768 51.1275V47.412C52.3768 46.245 51.4422 45.2955 50.2945 45.2955H11.3222Z" fill="white"/>
</g>
<path d="M13.1488 50.2493C13.0856 50.2493 13.0232 50.2432 12.9608 50.2296C12.8992 50.2175 12.839 50.1986 12.7818 50.1744C12.7224 50.1503 12.6674 50.1193 12.6146 50.0838C12.5626 50.0482 12.5136 50.0082 12.469 49.9628C12.4245 49.9175 12.3836 49.8676 12.3487 49.8132C12.3145 49.761 12.2848 49.7036 12.2603 49.6446C12.2365 49.5857 12.2172 49.5245 12.2053 49.4625C12.1934 49.3982 12.1875 49.3332 12.1875 49.2698C12.1875 49.2063 12.1934 49.1428 12.2053 49.0793C12.2172 49.0166 12.2365 48.9538 12.2603 48.8956C12.2848 48.8367 12.3145 48.78 12.3487 48.7263C12.3836 48.6727 12.4245 48.622 12.469 48.5767C12.5136 48.5328 12.5626 48.4913 12.6146 48.4558C12.6674 48.4202 12.7224 48.3908 12.7818 48.3666C12.839 48.3424 12.8992 48.3227 12.9608 48.3099C13.2751 48.2456 13.6071 48.3507 13.8292 48.5774C13.8738 48.622 13.9147 48.6727 13.9496 48.7263C13.9845 48.78 14.0135 48.8367 14.038 48.8956C14.0618 48.9538 14.0811 49.0166 14.093 49.0793C14.1048 49.1428 14.1123 49.2063 14.1123 49.2698C14.1123 49.334 14.1048 49.3982 14.093 49.4625C14.0811 49.5245 14.0618 49.5857 14.038 49.6446C14.0135 49.7036 13.9838 49.761 13.9496 49.8139C13.9139 49.8676 13.8738 49.9175 13.8292 49.9628C13.7847 50.0082 13.7356 50.0482 13.6836 50.0838C13.6309 50.1193 13.5759 50.1503 13.5165 50.1744C13.4593 50.1994 13.3991 50.2175 13.3375 50.2296C13.2751 50.2432 13.2127 50.2493 13.1488 50.2493Z" fill="white"/>
<path d="M18.0196 50.2494C17.9572 50.2494 17.8948 50.2434 17.8324 50.2298C17.7708 50.2177 17.7106 50.1988 17.6519 50.1746C17.594 50.1504 17.539 50.1194 17.4855 50.0839C17.4343 50.0484 17.3845 50.0083 17.3399 49.963C17.2953 49.9176 17.2545 49.8678 17.2196 49.8133C17.1846 49.7612 17.1564 49.7037 17.1319 49.6448C17.1081 49.5858 17.0888 49.5246 17.0769 49.4626C17.0643 49.3984 17.0576 49.3334 17.0576 49.2699C17.0576 49.2064 17.0643 49.1429 17.0769 49.0795C17.0888 49.0167 17.1081 48.954 17.1319 48.8958C17.1564 48.8368 17.1846 48.7802 17.2196 48.7265C17.2545 48.6728 17.2953 48.6222 17.3399 48.5768C17.3845 48.533 17.4343 48.4914 17.4855 48.4559C17.539 48.4204 17.594 48.3909 17.6519 48.3667C17.7106 48.3425 17.7708 48.3229 17.8324 48.31C17.9565 48.2843 18.085 48.2843 18.2091 48.31C18.27 48.3229 18.3301 48.3425 18.3881 48.3667C18.4468 48.3909 18.5025 48.4204 18.5552 48.4559C18.6072 48.4914 18.6563 48.533 18.7008 48.5768C18.7454 48.6222 18.7848 48.6728 18.8212 48.7265C18.8546 48.7802 18.8851 48.8368 18.9088 48.8958C18.9334 48.954 18.9527 49.0167 18.9646 49.0795C18.9764 49.1429 18.9824 49.2064 18.9824 49.2699C18.9824 49.3342 18.9764 49.3984 18.9646 49.4626C18.9527 49.5246 18.9334 49.5858 18.9088 49.6448C18.8851 49.703 18.8546 49.7612 18.8212 49.8133C18.7848 49.867 18.7454 49.9176 18.7008 49.963C18.5218 50.1451 18.2737 50.2494 18.0196 50.2494Z" fill="white"/>
<path d="M22.8931 50.2494C22.639 50.2494 22.3909 50.1451 22.2119 49.963C22.1673 49.9176 22.1264 49.867 22.0915 49.8133C22.0566 49.7604 22.0276 49.703 22.0039 49.6448C21.9793 49.5858 21.9608 49.5246 21.9481 49.4619C21.9363 49.3984 21.9288 49.3334 21.9288 49.2699C21.9288 49.2064 21.9363 49.1429 21.9481 49.0787C21.9608 49.0167 21.9793 48.954 22.0039 48.895C22.0276 48.8368 22.0566 48.7802 22.0915 48.7265C22.1264 48.6728 22.1673 48.6222 22.2119 48.5768C22.2564 48.533 22.3047 48.4914 22.3575 48.4559C22.4102 48.4204 22.4659 48.3909 22.5239 48.3667C22.5826 48.3418 22.6427 48.3229 22.7036 48.31C22.8277 48.2843 22.957 48.2843 23.0803 48.31C23.1419 48.3229 23.2021 48.3418 23.2601 48.3667C23.3187 48.3909 23.3745 48.4204 23.4257 48.4559C23.4785 48.4914 23.5282 48.533 23.5728 48.5768C23.6174 48.6222 23.6567 48.6728 23.6917 48.7265C23.7266 48.7802 23.757 48.8368 23.7808 48.895C23.8046 48.954 23.8231 49.0167 23.8358 49.0787C23.8484 49.1429 23.8543 49.2064 23.8543 49.2699C23.8543 49.3334 23.8484 49.3984 23.8358 49.4619C23.8231 49.5246 23.8046 49.5858 23.7808 49.6448C23.757 49.703 23.7266 49.7604 23.6917 49.8133C23.6567 49.867 23.6174 49.9176 23.5728 49.963C23.5282 50.0083 23.4785 50.0484 23.4257 50.0839C23.3745 50.1194 23.3187 50.1504 23.2601 50.1746C23.2021 50.1988 23.1419 50.2177 23.0803 50.2298C23.0179 50.2434 22.9555 50.2494 22.8931 50.2494Z" fill="white"/>
<path d="M48.4669 50.2493H27.7632C27.232 50.2493 26.8011 49.8109 26.8011 49.2705C26.8011 48.7294 27.232 48.291 27.7632 48.291H48.4676C48.9988 48.291 49.4296 48.7294 49.4296 49.2705C49.4296 49.8109 48.9988 50.2493 48.4669 50.2493Z" fill="white"/>
<path d="M50.2943 45.2954H11.322C9.11268 45.2954 7.31494 43.4674 7.31494 41.2203V37.5055C7.31494 35.2591 9.11268 33.4312 11.322 33.4312H50.2943C52.5035 33.4312 54.3013 35.2583 54.3013 37.5055V41.2203C54.3013 43.4674 52.5035 45.2954 50.2943 45.2954ZM11.322 35.3883C10.1742 35.3883 9.23971 36.3385 9.23971 37.5055V41.2203C9.23971 42.3881 10.1742 43.3375 11.322 43.3375H50.2943C51.442 43.3375 52.3765 42.3881 52.3765 41.2203V37.5055C52.3765 36.3385 51.442 35.3883 50.2943 35.3883H11.322Z" fill="white"/>
<path d="M13.1488 40.3422C13.0856 40.3422 13.0232 40.3361 12.9608 40.324C12.8992 40.3104 12.839 40.2923 12.7818 40.2681C12.7224 40.2432 12.6674 40.2129 12.6146 40.1774C12.5626 40.1419 12.5136 40.1011 12.469 40.0557C12.4245 40.0111 12.3836 39.9605 12.3487 39.9068C12.3145 39.8539 12.2848 39.798 12.2603 39.7375C12.2365 39.6793 12.2172 39.6181 12.2053 39.5554C12.1934 39.4919 12.1875 39.4269 12.1875 39.3634C12.1875 39.2992 12.1934 39.2357 12.2053 39.1722C12.2172 39.1095 12.2365 39.0482 12.2603 38.9885C12.2848 38.9296 12.3145 38.8737 12.3487 38.82C12.3836 38.7656 12.4245 38.7157 12.469 38.6719C12.5136 38.6265 12.5626 38.5849 12.6146 38.5494C12.6674 38.5139 12.7224 38.4844 12.7803 38.4587C12.839 38.4338 12.8992 38.4156 12.9608 38.4036C13.0849 38.3779 13.2127 38.3779 13.3375 38.4036C13.3991 38.4156 13.4593 38.4338 13.5165 38.4587C13.5759 38.4844 13.6309 38.5139 13.6836 38.5494C13.7356 38.5849 13.7847 38.6265 13.8292 38.6719C13.8738 38.7157 13.9139 38.7656 13.9496 38.82C13.9838 38.8737 14.0135 38.9296 14.038 38.9885C14.0618 39.0482 14.0811 39.1095 14.093 39.1722C14.1048 39.2357 14.1108 39.2992 14.1108 39.3634C14.1108 39.4269 14.1048 39.4919 14.093 39.5554C14.0811 39.6181 14.0618 39.6793 14.038 39.7375C14.0135 39.798 13.9838 39.8539 13.9496 39.9068C13.9139 39.9605 13.8738 40.0111 13.8292 40.0557C13.7847 40.1011 13.7356 40.1419 13.6836 40.1774C13.6309 40.2129 13.5759 40.2432 13.5165 40.2681C13.4593 40.2923 13.3991 40.3104 13.3375 40.324C13.2751 40.3361 13.2127 40.3422 13.1488 40.3422Z" fill="white"/>
<path d="M18.0211 40.3422C17.9572 40.3422 17.8948 40.3361 17.8324 40.324C17.7708 40.3104 17.7106 40.2923 17.6519 40.2681C17.594 40.2432 17.539 40.2129 17.4855 40.1774C17.4343 40.1419 17.3845 40.1011 17.3399 40.0557C17.2953 40.0111 17.2545 39.9605 17.2196 39.9068C17.1846 39.8539 17.1564 39.798 17.1319 39.7375C17.1081 39.6793 17.0888 39.6181 17.0769 39.5554C17.0643 39.4919 17.0576 39.4269 17.0576 39.3634C17.0576 39.2992 17.0643 39.2357 17.0769 39.1722C17.0888 39.1095 17.1081 39.0482 17.1319 38.9885C17.1564 38.9296 17.1846 38.8737 17.2196 38.82C17.2545 38.7656 17.2953 38.7157 17.3399 38.6719C17.3845 38.6265 17.4343 38.5849 17.4855 38.5494C17.539 38.5139 17.594 38.4844 17.6519 38.4587C17.7106 38.4338 17.7708 38.4156 17.8324 38.4036C17.9565 38.3779 18.085 38.3779 18.2091 38.4036C18.27 38.4156 18.3301 38.4338 18.3881 38.4587C18.4468 38.4844 18.5025 38.5139 18.5552 38.5494C18.6072 38.5849 18.6563 38.6265 18.7008 38.6719C18.7454 38.7157 18.7848 38.7656 18.8212 38.82C18.8546 38.8737 18.8851 38.9296 18.9088 38.9885C18.9334 39.0482 18.9512 39.1095 18.9646 39.1722C18.9764 39.2357 18.9824 39.2992 18.9824 39.3634C18.9824 39.4269 18.9764 39.4919 18.9646 39.5554C18.9512 39.6181 18.9334 39.6793 18.9088 39.7375C18.8851 39.798 18.8546 39.8539 18.8212 39.9068C18.7848 39.9605 18.7454 40.0111 18.7008 40.0557C18.6563 40.1011 18.6072 40.1419 18.5552 40.1774C18.5025 40.2129 18.4468 40.2432 18.3881 40.2681C18.3301 40.2923 18.27 40.3104 18.2091 40.324C18.1459 40.3361 18.0835 40.3422 18.0211 40.3422Z" fill="white"/>
<path d="M22.8916 40.3422C22.8292 40.3422 22.7668 40.3361 22.7036 40.324C22.6427 40.3104 22.5826 40.2923 22.5239 40.2681C22.4659 40.2432 22.4102 40.2129 22.3575 40.1774C22.3047 40.1419 22.2564 40.1011 22.2119 40.0557C22.1673 40.0111 22.1264 39.9605 22.0915 39.9068C22.0566 39.8539 22.0276 39.798 22.0039 39.7375C21.9793 39.6793 21.9608 39.6181 21.9481 39.5554C21.9363 39.4919 21.9288 39.4269 21.9288 39.3634C21.9288 39.2992 21.9363 39.2357 21.9481 39.1722C21.9608 39.1095 21.9793 39.0482 22.0039 38.9885C22.0276 38.9296 22.0566 38.8737 22.0915 38.82C22.1264 38.7656 22.1673 38.7157 22.2119 38.6719C22.2564 38.6265 22.3047 38.5849 22.3575 38.5494C22.4102 38.5139 22.4659 38.4844 22.5239 38.4587C22.5826 38.4338 22.6427 38.4156 22.7036 38.4036C22.8277 38.3779 22.957 38.3779 23.0803 38.4036C23.1419 38.4156 23.2021 38.4338 23.2601 38.4587C23.3187 38.4844 23.3745 38.5139 23.4272 38.5494C23.4785 38.5849 23.5282 38.6265 23.5728 38.6719C23.6174 38.7157 23.6567 38.7656 23.6931 38.82C23.7266 38.8737 23.757 38.9296 23.7808 38.9885C23.8046 39.0482 23.8239 39.1095 23.8358 39.1722C23.8484 39.2357 23.8551 39.2992 23.8551 39.3634C23.8551 39.6211 23.7518 39.8736 23.5728 40.0557C23.5282 40.1011 23.4785 40.1419 23.4257 40.1774C23.3745 40.2129 23.3187 40.2432 23.2601 40.2681C23.2021 40.2923 23.1419 40.3104 23.0803 40.324C23.0179 40.3361 22.9555 40.3422 22.8916 40.3422Z" fill="white"/>
<path d="M48.4669 40.3431H27.7632C27.232 40.3431 26.8011 39.9047 26.8011 39.3636C26.8011 38.8232 27.232 38.384 27.7632 38.384H48.4676C48.9988 38.384 49.4296 38.8232 49.4296 39.3636C49.4296 39.9047 48.9988 40.3431 48.4669 40.3431Z" fill="white"/>
<path d="M50.2943 35.3884H11.322C9.11268 35.3884 7.31494 33.5604 7.31494 31.314V27.5992C7.31494 25.3521 9.11268 23.5249 11.322 23.5249H50.2943C52.5035 23.5249 54.3013 25.3521 54.3013 27.5992V31.314C54.3013 33.5604 52.5035 35.3884 50.2943 35.3884ZM11.322 25.482C10.1742 25.482 9.23971 26.4315 9.23971 27.5992V31.314C9.23971 32.481 10.1742 33.4313 11.322 33.4313H50.2943C51.442 33.4313 52.3765 32.481 52.3765 31.314V27.5992C52.3765 26.4315 51.442 25.482 50.2943 25.482H11.322Z" fill="white"/>
<path d="M13.1488 30.4359C13.0856 30.4359 13.0232 30.4298 12.9608 30.4162C12.8992 30.4041 12.839 30.386 12.7818 30.3611C12.7224 30.3369 12.6674 30.3059 12.6146 30.2704C12.5626 30.2348 12.5136 30.1948 12.469 30.1494C12.2893 29.9673 12.1875 29.7148 12.1875 29.4564C12.1875 29.3929 12.1934 29.3294 12.2053 29.2659C12.2172 29.2032 12.2365 29.142 12.2603 29.0822C12.2848 29.0233 12.3145 28.9674 12.3487 28.9129C12.3836 28.8593 12.4245 28.8102 12.469 28.7648C12.5136 28.7195 12.5626 28.6779 12.6146 28.6424C12.6674 28.6068 12.7224 28.5781 12.7818 28.5532C12.839 28.529 12.8992 28.5093 12.9608 28.4973C13.2736 28.4323 13.6056 28.5373 13.8292 28.7648C13.8738 28.8102 13.9147 28.8593 13.9496 28.9129C13.9845 28.9666 14.0135 29.0233 14.038 29.0822C14.0618 29.142 14.0811 29.2032 14.093 29.2659C14.1048 29.3294 14.1123 29.3929 14.1123 29.4564C14.1123 29.7148 14.009 29.9673 13.8292 30.1494C13.7847 30.1948 13.7356 30.2348 13.6836 30.2704C13.6309 30.3059 13.5759 30.3369 13.5165 30.3611C13.4593 30.386 13.3991 30.4041 13.3375 30.4162C13.2751 30.4298 13.2127 30.4359 13.1488 30.4359Z" fill="white"/>
<path d="M18.0199 30.4359C17.9575 30.4359 17.8951 30.4298 17.8327 30.4162C17.771 30.4041 17.7108 30.386 17.6521 30.3611C17.5942 30.3369 17.5392 30.3059 17.4857 30.2704C17.4345 30.2348 17.3847 30.1948 17.3401 30.1494C17.1611 29.9673 17.0586 29.7148 17.0586 29.4564C17.0586 29.3929 17.0645 29.3294 17.0772 29.2659C17.0891 29.2032 17.1084 29.142 17.1321 29.0822C17.1567 29.0233 17.1864 28.9674 17.2198 28.9129C17.2547 28.8593 17.2956 28.8102 17.3401 28.7648C17.3847 28.7195 17.4345 28.6779 17.4857 28.6424C17.5392 28.6068 17.5942 28.5781 17.6521 28.5532C17.7108 28.529 17.771 28.5093 17.8327 28.4973C18.1454 28.4323 18.4775 28.5373 18.7011 28.7648C18.7456 28.8102 18.7865 28.8593 18.8214 28.9129C18.8548 28.9666 18.8853 29.0233 18.9091 29.0822C18.9336 29.142 18.9529 29.2032 18.9648 29.2659C18.9767 29.3294 18.9841 29.3929 18.9841 29.4564C18.9841 29.7148 18.8801 29.9673 18.7011 30.1494C18.6565 30.1948 18.6075 30.2348 18.554 30.2704C18.5027 30.3059 18.447 30.3369 18.3883 30.3611C18.3304 30.386 18.2702 30.4041 18.2093 30.4162C18.1462 30.4298 18.0838 30.4359 18.0199 30.4359Z" fill="white"/>
<path d="M22.8916 30.4359C22.8292 30.4359 22.7668 30.4298 22.7036 30.4162C22.6427 30.4041 22.5826 30.386 22.5239 30.3611C22.4659 30.3369 22.4102 30.3059 22.3575 30.2704C22.3055 30.2348 22.2564 30.1948 22.2119 30.1494C22.0328 29.9673 21.9288 29.7148 21.9288 29.4564C21.9288 29.3929 21.9363 29.3294 21.9481 29.2659C21.9608 29.2032 21.9793 29.142 22.0039 29.0822C22.0276 29.0233 22.0566 28.9674 22.0915 28.9129C22.1264 28.8593 22.1673 28.8102 22.2119 28.7648C22.2564 28.7195 22.3055 28.6779 22.3575 28.6424C22.4102 28.6068 22.4659 28.5781 22.5239 28.5532C22.5826 28.529 22.6427 28.5093 22.7036 28.4973C23.0171 28.4323 23.3492 28.5373 23.5728 28.7648C23.6174 28.8102 23.6567 28.8593 23.6931 28.9129C23.7266 28.9666 23.757 29.0233 23.7808 29.0822C23.8046 29.142 23.8239 29.2032 23.8358 29.2659C23.8484 29.3294 23.8551 29.3929 23.8551 29.4564C23.8551 29.7148 23.7518 29.9673 23.5728 30.1494C23.5282 30.1948 23.4785 30.2348 23.4257 30.2704C23.3745 30.3059 23.3187 30.3369 23.2601 30.3611C23.2021 30.386 23.1419 30.4041 23.0803 30.4162C23.0179 30.4298 22.9555 30.4359 22.8916 30.4359Z" fill="white"/>
<path d="M48.4669 30.4368H27.7632C27.232 30.4368 26.8011 29.9977 26.8011 29.4573C26.8011 28.9161 27.232 28.4778 27.7632 28.4778H48.4676C48.9988 28.4778 49.4296 28.9161 49.4296 29.4573C49.4296 29.9977 48.9988 30.4368 48.4669 30.4368Z" fill="white"/>
<mask id="mask1_135_1038" style="mask-type:luminance" maskUnits="userSpaceOnUse" x="0" y="0" width="62" height="32">
<path d="M0 0H61.6164V31.8598H0V0Z" fill="white"/>
</mask>
<g mask="url(#mask1_135_1038)">
<path d="M53.3386 31.6735C52.8074 31.6735 52.3766 31.2354 52.3766 30.6946C52.3766 30.1545 52.8074 29.7164 53.3386 29.7164C56.8375 29.7164 59.6834 26.822 59.6834 23.265C59.6834 21.9923 59.3194 20.7611 58.6308 19.7043C57.957 18.674 57.0158 17.8651 55.9082 17.3665C55.5167 17.1898 55.2864 16.7713 55.3443 16.34C55.3948 15.9593 55.4208 15.5809 55.4208 15.2161C55.4208 10.6341 51.7555 6.90725 47.2493 6.90725C45.7324 6.90725 44.2504 7.33402 42.9622 8.14224C42.5217 8.41869 41.9445 8.29104 41.657 7.85294C39.2278 4.1593 35.1725 1.95368 30.8082 1.95368C26.4438 1.95368 22.3885 4.15854 19.9594 7.85294C19.6711 8.29104 19.0947 8.41869 18.6534 8.14148C17.366 7.33402 15.884 6.90649 14.3671 6.90649C9.86082 6.90649 6.19552 10.6341 6.19552 15.2153C6.19552 15.5809 6.22152 15.9586 6.27203 16.34C6.32998 16.7713 6.09969 17.189 5.7082 17.3658C3.41497 18.4006 1.93295 20.7157 1.93295 23.265C1.93295 24.9872 2.59261 26.6082 3.79086 27.8273C4.98984 29.0449 6.58329 29.7157 8.27777 29.7157C8.80892 29.7157 9.23979 30.1545 9.23979 30.6946C9.23979 31.2354 8.80892 31.6735 8.27777 31.6735C6.06923 31.6735 3.99292 30.7988 2.42992 29.2111C0.867676 27.6219 0.00817871 25.5099 0.00817871 23.265C0.00817871 20.184 1.66849 17.365 4.29378 15.8966C4.27818 15.667 4.27075 15.4396 4.27075 15.2161C4.27075 9.55473 8.80001 4.94939 14.3671 4.94939C15.9382 4.94939 17.4797 5.32102 18.8748 6.02878C21.6999 2.23543 26.0969 -0.00341797 30.8082 -0.00341797C35.5194 -0.00341797 39.9165 2.23543 42.7416 6.02878C44.1367 5.32026 45.6782 4.94939 47.2493 4.94939C52.8164 4.94939 57.3464 9.55473 57.3464 15.2161C57.3464 15.4396 57.3382 15.667 57.3226 15.8966C58.4919 16.5492 59.4895 17.4813 60.2346 18.6219C61.1335 20.0012 61.6082 21.6063 61.6082 23.265C61.6082 27.9013 57.8991 31.6735 53.3386 31.6735Z" fill="white"/>
</g>
<path d="M27.7633 14.3365C27.5174 14.3365 27.2708 14.2413 27.0828 14.0502L25.3282 12.2653L23.5728 14.0502C23.1969 14.4324 22.5877 14.4324 22.2118 14.0502C21.836 13.668 21.836 13.0479 22.2118 12.6656L24.6477 10.1896C24.8282 10.0061 25.0726 9.90259 25.3282 9.90259C25.583 9.90259 25.8281 10.0061 26.0086 10.1896L28.4445 12.6656C28.8204 13.0479 28.8204 13.668 28.4445 14.0502C28.2566 14.2413 28.0099 14.3365 27.7633 14.3365Z" fill="white"/>
<path d="M25.3281 20.528C24.7962 20.528 24.3654 20.0899 24.3654 19.5491V10.8815C24.3654 10.3407 24.7962 9.90259 25.3281 9.90259C25.8593 9.90259 26.2901 10.3407 26.2901 10.8815V19.5491C26.2901 20.0899 25.8593 20.528 25.3281 20.528Z" fill="white"/>
<path d="M36.2885 20.5282C36.0426 20.5282 35.796 20.4331 35.608 20.242L33.1722 17.7652C32.7963 17.383 32.7963 16.7636 33.1722 16.3814C33.5481 15.9992 34.158 15.9992 34.5339 16.3814L36.2885 18.1655L38.0439 16.3814C38.4198 15.9992 39.0289 15.9992 39.4048 16.3814C39.7807 16.7636 39.7807 17.383 39.4048 17.7652L36.9697 20.242C36.7818 20.4331 36.5351 20.5282 36.2885 20.5282Z" fill="white"/>
<path d="M36.2883 20.528C35.7572 20.528 35.3263 20.0899 35.3263 19.5491V10.8815C35.3263 10.3407 35.7572 9.90259 36.2883 9.90259C36.8202 9.90259 37.2511 10.3407 37.2511 10.8815V19.5491C37.2511 20.0899 36.8202 20.528 36.2883 20.528Z" fill="white"/>
</svg>
