<svg width="89" height="81" viewBox="0 0 89 81" fill="none" xmlns="http://www.w3.org/2000/svg">
<mask id="mask0_74_270" style="mask-type:luminance" maskUnits="userSpaceOnUse" x="0" y="0" width="89" height="81">
<path d="M0 0H89V80.022H0V0Z" fill="white"/>
</mask>
<g mask="url(#mask0_74_270)">
<path d="M87.6562 45.7849L87.035 45.3239L88.7591 39.9053C88.9858 39.1914 88.9215 38.4318 88.5771 37.7659C88.2316 37.1022 87.6507 36.6096 86.9358 36.383L85.1441 35.813V30.9251C85.1441 29.3797 83.8876 28.122 82.3411 28.122H71.1725C70.3987 28.122 69.771 28.7498 69.771 29.5236C69.771 30.2973 70.3987 30.9251 71.1725 30.9251H74.0464C74.1172 31.4242 74.2316 31.9103 74.3766 32.3876L66.1015 29.7535L26.9253 0.620132C25.6862 -0.299686 23.9272 -0.0413959 23.0041 1.19665L1.2576 30.4379C0.809684 31.0395 0.623323 31.7773 0.733396 32.5195C0.842379 33.2595 1.23363 33.9134 1.83413 34.3591L4.55653 36.383L0.238612 49.9764C0.0108374 50.6903 0.0751378 51.4499 0.420614 52.1158C0.765001 52.7795 1.34697 53.2721 2.0619 53.4988L3.85467 54.0698V67.3658C3.85467 68.9122 5.11125 70.1688 6.65772 70.1688H43.0973C43.8711 70.1688 44.4989 69.5411 44.4989 68.7673C44.4989 67.9935 43.8711 67.3658 43.0973 67.3658H14.9546C14.3378 63.0784 10.9451 59.6857 6.65772 59.0689V54.9602L46.6436 67.6829L62.5672 79.5239C63.0554 79.8868 63.6363 80.0797 64.2335 80.0797C64.3708 80.0797 64.5082 80.0699 64.6466 80.0481C65.3876 79.9392 66.0426 79.5501 66.4873 78.9485L69.4625 74.9466L74.2055 76.4582C74.4758 76.5421 74.7548 76.5825 75.0305 76.5825C75.4751 76.5825 75.9176 76.4757 76.3263 76.2653C76.9976 75.9177 77.4892 75.3335 77.7049 74.6328L79.1272 70.1688H82.3411C83.8876 70.1688 85.1441 68.9122 85.1441 67.3658V53.8606L88.2338 49.7061C89.1558 48.4659 88.8964 46.7058 87.6562 45.7849ZM12.1221 67.3658H6.65772V61.9014C9.39865 62.4604 11.5631 64.6248 12.1221 67.3658ZM84.657 43.553L81.8855 41.4932C81.7144 40.2769 81.7329 38.8765 81.9291 37.73L86.089 39.0541L84.657 43.553ZM77.5622 65.8651C77.1513 65.7975 76.7361 65.7452 76.3165 65.7321L78.5681 62.7024L77.5622 65.8651ZM69.1901 70.6156C65.3811 68.5515 60.6338 69.2512 57.5812 72.3234L10.1637 37.0641C12.2268 33.2551 11.5304 28.5067 8.45812 25.4519L20.3024 9.52514C21.765 10.3175 23.3616 10.7152 24.9516 10.7152C27.5073 10.7152 30.0292 9.71478 31.9124 7.82065L79.3255 43.08C78.3174 44.9327 77.9262 47.048 78.239 49.171C78.5517 51.294 79.5337 53.2056 81.0322 54.6921L69.1901 70.6156ZM82.3411 30.9251V34.9204L78.0243 33.545C77.4641 32.7527 77.0772 31.871 76.8876 30.9273H82.3411V30.9251ZM76.7165 36.0734C76.7481 36.0832 76.7808 36.092 76.8145 36.0996L79.247 36.8756C79.0912 37.6352 79.0018 38.47 78.9779 39.3288L73.0165 34.8964L76.7165 36.0734ZM25.2535 2.86954L29.639 6.13032C27.5531 7.9972 24.5255 8.44185 21.9917 7.25503L25.2535 2.86954ZM3.50702 32.113L6.76779 27.7275C7.67998 28.7421 8.27612 30.0009 8.47883 31.3806C8.68263 32.7625 8.47338 34.1401 7.89032 35.3749L3.50702 32.113ZM4.56524 45.6193C7.01083 46.9816 8.41998 49.7007 8.12245 52.4841L2.91088 50.8276L4.56524 45.6193ZM10.8209 53.3451C11.5314 49.0697 9.32454 44.8063 5.42294 42.9198L6.93672 38.155L39.7287 62.5422L10.8209 53.3451ZM64.239 77.2745L59.8535 74.0148C61.9383 72.1479 64.9659 71.7022 67.4987 72.8912L64.239 77.2745ZM75.0436 73.7805L71.2313 72.5675L74.0213 68.8152C74.5313 68.6703 75.0479 68.5679 75.5645 68.5406C75.9503 68.5177 76.3263 68.5373 76.699 68.5755L75.0436 73.7805ZM80.0219 67.3658L82.3411 60.0835V67.3658H80.0219ZM82.7236 52.4187C81.8114 51.403 81.2153 50.1453 81.0126 48.7645C80.8099 47.3837 81.018 46.0062 81.6 44.7725L85.9855 48.0343L82.7236 52.4187Z" fill="#113563"/>
</g>
<path d="M53.1085 28.8262C46.9073 24.2119 38.1091 25.5077 33.498 31.7088C31.2639 34.7124 30.3343 38.4069 30.8792 42.1113C31.423 45.8156 33.3782 49.0851 36.3817 51.3182C38.824 53.136 41.7241 54.0907 44.7146 54.0907C45.4001 54.0907 46.091 54.0406 46.7842 53.9392C50.4885 53.3943 53.758 51.4402 55.9911 48.4367C58.2241 45.432 59.1549 41.7386 58.611 38.0342C58.0672 34.3299 56.1142 31.0604 53.1085 28.8262ZM53.7427 46.7627C51.9554 49.1658 49.3387 50.7297 46.3755 51.1656C43.4111 51.6026 40.4566 50.8572 38.0535 49.0699C35.6494 47.2836 34.0865 44.6669 33.6517 41.7037C33.2158 38.7404 33.959 35.7848 35.7464 33.3806C39.4354 28.4197 46.4725 27.3844 51.4356 31.0746C56.3965 34.7647 57.4329 41.8018 53.7427 46.7627Z" fill="#113563"/>
<path d="M48.6392 32.4879L47.6518 33.8164C47.06 33.6333 46.4344 33.569 45.8067 33.6628C44.6951 33.8262 43.7142 34.4126 43.044 35.3139C41.7013 37.1208 42.0272 39.6601 43.7513 41.0725C43.8047 41.1445 43.8504 41.2196 43.8897 41.3003C43.9976 41.5226 44.0433 41.7624 44.0259 42.012C43.9692 42.7825 43.2772 43.3655 42.5274 43.3078C42.1536 43.2816 41.8125 43.1105 41.5683 42.8272C41.3231 42.5449 41.2032 42.1831 41.2305 41.8103C41.2872 41.0376 40.7052 40.3663 39.9347 40.3107C39.1326 40.2584 38.4907 40.836 38.4351 41.6065C38.3533 42.7269 38.7141 43.8113 39.4497 44.6602C39.4748 44.6897 39.5053 44.7093 39.5304 44.7376L38.6062 45.9822C38.143 46.6034 38.2727 47.4818 38.895 47.9428C39.1456 48.1292 39.4399 48.2207 39.7298 48.2207C40.1592 48.2207 40.581 48.0256 40.8556 47.6562L42.0457 46.0552C42.1405 46.0694 42.2299 46.0956 42.3269 46.1032C42.4293 46.1097 42.5318 46.1141 42.632 46.1141C44.8149 46.1141 46.6633 44.4205 46.8246 42.2125C46.878 41.4747 46.7363 40.7369 46.4137 40.0731C46.2666 39.7702 46.0835 39.4857 45.8677 39.2263C45.7871 39.1217 45.6934 39.0269 45.5855 38.9463C45.2858 38.7228 45.0896 38.3959 45.0351 38.0254C44.9795 37.6559 45.0721 37.2854 45.2967 36.9857C45.5201 36.6859 45.8481 36.4898 46.2176 36.4353C46.5903 36.3819 46.9576 36.4745 47.2594 36.6979C47.4589 36.8472 47.6104 37.0391 47.7085 37.2646C47.7575 37.378 47.7913 37.499 47.8098 37.6188C47.9231 38.3861 48.6381 38.9114 49.401 38.8024C50.166 38.6891 50.6957 37.9785 50.5834 37.2112C50.53 36.8483 50.4298 36.4941 50.2837 36.1563C50.1824 35.922 50.0352 35.7149 49.8936 35.5046L50.8929 34.1597C51.3561 33.5396 51.2264 32.6623 50.6041 32.1991C49.9808 31.7381 49.1023 31.8656 48.6392 32.4879Z" fill="#113563"/>
</svg>
