<svg width="63" height="63" viewBox="0 0 63 63" fill="none" xmlns="http://www.w3.org/2000/svg">
<path d="M5.67444 0H57.3259C58.8871 0 60.3056 0.637941 61.3338 1.66618C62.3615 2.69442 63 4.11327 63 5.67447V57.3258C63 58.887 62.3615 60.3059 61.3338 61.3338C60.3056 62.3621 58.8871 63 57.3259 63H5.67444C4.11325 63 2.69441 62.3621 1.66617 61.3338C0.638237 60.3059 0 58.887 0 57.3258V5.67447C0 4.11327 0.638237 2.69442 1.66617 1.66618C2.69441 0.637941 4.11325 0 5.67444 0ZM57.3259 1.53758H5.67444C4.53764 1.53758 3.50342 2.00295 2.75333 2.75334C2.00294 3.50374 1.53727 4.53736 1.53727 5.67447V57.3258C1.53727 58.4626 2.00294 59.4969 2.75333 60.247C3.50342 60.9973 4.53764 61.463 5.67444 61.463H57.3259C58.4627 61.463 59.4963 60.9973 60.2467 60.247C60.9971 59.4969 61.4624 58.4626 61.4624 57.3258V5.67447C61.4624 4.53736 60.9971 3.50374 60.2467 2.75334C59.4963 2.00295 58.4627 1.53758 57.3259 1.53758Z" fill="#2A6682"/>
<path fill-rule="evenodd" clip-rule="evenodd" d="M9.66855 24.4687H18.5019V52.9802H9.66855V24.4687ZM14.1566 10C17.0048 10 19.3135 12.2582 19.3135 15.0437C19.3135 17.8292 17.0048 20.0874 14.1566 20.0874C11.3087 20.0874 9 17.8292 9 15.0437C9 12.2582 11.3087 10 14.1566 10ZM32.0818 28.3462C37.7922 20.9882 53 21.73 53 35.6701C53 52.8316 53 53 53 53H44.0837L44.1072 37.7325C44.1072 28.5239 32.9038 30.3827 32.5151 37.3587V52.9802H23.6817V24.4687H32.0818V28.3462Z" fill="#2A6682"/>
</svg>
