<svg width="89" height="90" viewBox="0 0 89 90" fill="none" xmlns="http://www.w3.org/2000/svg">
<path d="M35.4296 32.5531C23.2465 32.5531 13.3344 42.4652 13.3344 54.6484C13.3344 66.8315 23.2465 76.7426 35.4296 76.7426C47.6128 76.7426 57.5249 66.8315 57.5249 54.6484C57.5249 42.4652 47.6128 32.5531 35.4296 32.5531ZM46.2456 70.434L44.8079 67.9437L42.2569 69.4162L43.6903 71.8966C41.6058 72.8982 39.3207 73.5362 36.9053 73.7217V69.3782H33.9594V73.7217C31.544 73.5362 29.2577 72.9003 27.1744 71.8966L28.6078 69.4162L26.0568 67.9437L24.6191 70.434C22.6735 69.0972 20.9863 67.4099 19.6473 65.4633L22.1386 64.0255L20.6651 61.4735L18.1846 62.9068C17.1831 60.8224 16.5462 58.5383 16.3595 56.123H20.6998V53.177H16.3552C16.5407 50.7606 17.1777 48.4743 18.1803 46.3921L20.6607 47.8255L22.1343 45.2745L19.6429 43.8367C20.9808 41.8901 22.667 40.2039 24.6147 38.865L26.0525 41.3563L28.6035 39.8827L27.1701 37.4023C29.2545 36.4008 31.5396 35.7627 33.955 35.5772V39.9186H36.901V35.5739C39.3163 35.7595 41.6026 36.3964 43.6859 37.399L42.2525 39.8795L44.8035 41.353L46.2413 38.8617C48.1868 40.1996 49.8741 41.8858 51.2131 43.8335L48.7217 45.2712L50.1953 47.8222L52.6757 46.3888C53.6772 48.4732 54.3153 50.7584 54.5008 53.1738H50.1594V56.1197H54.503C54.3174 58.5351 53.6816 60.8213 52.6779 62.9047L50.1974 61.4713L48.725 64.0223L51.2152 65.46C49.8784 67.4099 48.1911 69.0972 46.2456 70.434Z" fill="#113563"/>
<path d="M36.9021 42.8644H33.9562V54.6482C33.9562 55.1669 34.2285 55.6454 34.6712 55.9102L42.0356 60.3297L43.5514 57.8025L36.9021 53.8138V42.8644Z" fill="#113563"/>
<mask id="mask0_74_223" style="mask-type:luminance" maskUnits="userSpaceOnUse" x="0" y="0" width="89" height="90">
<path d="M0 0H88.5417V90H0V0Z" fill="white"/>
</mask>
<g mask="url(#mask0_74_223)">
<path d="M70.1921 0.441782C69.7461 0.104325 69.1482 0.053327 68.6502 0.301808C68.151 0.552459 67.8353 1.06244 67.8353 1.62017V7.51209H11.862V10.4581H69.3088C70.1226 10.4581 70.7812 9.80051 70.7812 8.98562V4.56613L84.6115 14.9383L70.7812 26.4628V20.7695C70.7812 19.9546 70.1226 19.2959 69.3088 19.2959H35.4297C15.9375 19.2959 0.078125 35.1564 0.078125 54.6486C0.078125 74.1408 15.9375 90.0002 35.4297 90.0002V88.5266L35.4601 90.0002L35.6413 89.9991V87.0531L35.4232 87.0542C17.5575 87.0509 3.02409 72.5154 3.02409 54.6486C3.02409 36.7797 17.5608 22.2419 35.4297 22.2419H67.8353V29.6074C67.8353 30.1792 68.1673 30.6989 68.6838 30.9409C69.1992 31.184 69.8123 31.1058 70.2506 30.7391L87.9275 16.0082C88.2715 15.7196 88.4679 15.2899 88.4559 14.8396C88.444 14.3882 88.2281 13.9683 87.8667 13.6992L70.1921 0.441782Z" fill="#113563"/>
</g>
<path d="M50.5158 86.6287C51.4468 86.186 52.3605 85.7043 53.2329 85.1964L51.7474 82.6498C50.9477 83.1164 50.11 83.5591 49.2539 83.9671L50.5158 86.6287Z" fill="#113563"/>
<path d="M54.1135 81.1293L55.816 83.5349C56.6461 82.9457 57.4642 82.3142 58.2433 81.6556L56.3412 79.4062C55.6272 80.0085 54.8774 80.5868 54.1135 81.1293Z" fill="#113563"/>
<path d="M66.748 63.0047L69.5942 63.7643C69.8579 62.7823 70.0792 61.7721 70.2561 60.763L67.3524 60.2562C67.1908 61.1807 66.9889 62.1041 66.748 63.0047Z" fill="#113563"/>
<path d="M67.7148 57.462L70.6489 57.7148C70.7368 56.6981 70.7813 55.6662 70.7813 54.6484H67.8353C67.8353 55.5838 67.7951 56.5289 67.7148 57.462Z" fill="#113563"/>
<path d="M62.0247 73.1694L64.4389 74.86C65.0195 74.0331 65.5739 73.1597 66.0882 72.2623L63.534 70.7953C63.0631 71.6156 62.5542 72.4142 62.0247 73.1694Z" fill="#113563"/>
<path d="M64.8286 68.2965L67.5011 69.5368C67.9308 68.609 68.328 67.6552 68.6741 66.6971L65.9061 65.6902C65.5882 66.568 65.2257 67.4458 64.8286 68.2965Z" fill="#113563"/>
<path d="M41.7621 89.4349L41.2359 86.5345C40.3287 86.6995 39.3891 86.8275 38.4451 86.9154L38.7185 89.8505C39.7472 89.7539 40.7704 89.614 41.7621 89.4349Z" fill="#113563"/>
<path d="M46.6647 85.0552C45.7815 85.3807 44.8809 85.6693 43.9824 85.9156L44.7582 88.7585C45.7391 88.4883 46.7233 88.1748 47.6825 87.8199L46.6647 85.0552Z" fill="#113563"/>
<path d="M58.4128 77.4927L60.5016 79.5727C61.2156 78.8544 61.9133 78.0895 62.573 77.3017L60.3117 75.4115C59.7062 76.1352 59.0682 76.8351 58.4128 77.4927Z" fill="#113563"/>
<mask id="mask1_74_223" style="mask-type:luminance" maskUnits="userSpaceOnUse" x="0" y="7" width="4" height="4">
<path d="M0 7.50012H3.15755V10.5557H0V7.50012Z" fill="white"/>
</mask>
<g mask="url(#mask1_74_223)">
<path d="M0.078125 7.5116H3.02409V10.4576H0.078125V7.5116Z" fill="#113563"/>
</g>
<path d="M5.97009 7.51172H8.91606V10.4577H5.97009V7.51172Z" fill="#113563"/>
</svg>
