<svg width="24" height="23" viewBox="0 0 24 23" fill="none" xmlns="http://www.w3.org/2000/svg">
<path d="M10.7635 0.691214C11.0629 -0.230097 12.3663 -0.2301 12.6657 0.691211L14.7455 7.09243C14.8794 7.50445 15.2634 7.78341 15.6966 7.78341L22.4272 7.78341C23.396 7.78341 23.7987 9.02303 23.015 9.59243L17.5698 13.5486C17.2193 13.8032 17.0727 14.2546 17.2065 14.6666L19.2864 21.0679C19.5858 21.9892 18.5313 22.7553 17.7476 22.1859L12.3024 18.2297C11.9519 17.9751 11.4773 17.9751 11.1268 18.2297L5.68161 22.1859C4.8979 22.7553 3.84342 21.9892 4.14277 21.0679L6.22265 14.6666C6.35653 14.2546 6.20987 13.8032 5.85938 13.5486L0.414176 9.59243C-0.369538 9.02303 0.0332401 7.78341 1.00196 7.78341L7.7326 7.78341C8.16583 7.78341 8.54979 7.50445 8.68366 7.09243L10.7635 0.691214Z" fill="#F5C045"/>
</svg>
