<svg width="89" height="91" viewBox="0 0 89 91" fill="none" xmlns="http://www.w3.org/2000/svg">
<mask id="mask0_74_184" style="mask-type:luminance" maskUnits="userSpaceOnUse" x="0" y="0" width="89" height="91">
<path d="M0 0H88.6604V90.6182H0V0Z" fill="white"/>
</mask>
<g mask="url(#mask0_74_184)">
<path fill-rule="evenodd" clip-rule="evenodd" d="M87.5962 55.9423C86.756 54.5406 83.3102 50.3792 74.2084 55.6801L69.728 58.2901C70.5255 56.2996 71.0062 54.2085 71.1406 52.0813C71.4072 47.8849 70.3791 43.7126 68.0837 39.6823C65.6092 35.3373 61.84 30.4297 56.3041 24.352C57.8293 23.5261 58.8672 21.9113 58.8672 20.0573C58.8672 17.5926 57.0307 15.5496 54.6533 15.2229L57.9604 11.9158C59.9007 9.9755 59.9007 6.81811 57.9604 4.87779C56.3173 3.23573 53.7061 2.95495 51.7494 4.21026C51.6194 4.29329 51.508 4.30422 51.3659 4.24413C51.2228 4.18513 51.1507 4.09882 51.1179 3.94805C50.6219 1.6767 48.5767 0.0291748 46.254 0.0291748C43.9324 0.0291748 41.8872 1.67779 41.3912 3.94805C41.3573 4.09991 41.2863 4.18513 41.1432 4.24413C41.0001 4.30312 40.8886 4.29329 40.7586 4.21026C38.8019 2.95495 36.1908 3.23573 34.5487 4.87779C33.6114 5.81518 33.0946 7.06502 33.0946 8.39681C33.0946 9.72968 33.6103 10.9795 34.5487 11.9158L37.8547 15.2229C35.4774 15.5496 33.6409 17.5926 33.6409 20.0573C33.6409 21.9113 34.6787 23.5261 36.2039 24.352C30.6681 30.4286 26.9 35.3373 24.4243 39.6834C21.4417 44.9198 20.5918 50.4436 21.9399 55.7314L12.8611 60.9876L11.7292 58.9883C10.7033 57.1747 8.39265 56.5334 6.57797 57.5603L2.07132 60.1103C0.257729 61.1372 -0.38249 63.4479 0.643389 65.2615L13.8924 88.6721C14.5873 89.899 15.8699 90.5895 17.1886 90.5895C17.8189 90.5895 18.4581 90.4311 19.0437 90.1L23.5503 87.549C25.3639 86.522 26.0052 84.2113 24.9782 82.3977L23.6071 79.9756L26.3439 78.3958L46.9194 83.9087C48.0807 84.2201 49.2202 84.3752 50.3346 84.3752C52.5579 84.3752 54.6828 83.7579 56.6832 82.5266L85.8307 64.5787C88.4833 62.9454 89.3245 58.8287 87.5962 55.9423ZM35.9242 8.39681C35.9242 7.82105 36.146 7.28134 36.5491 6.87929C37.2582 6.17024 38.3857 6.05007 39.2302 6.59196C40.1381 7.17427 41.2295 7.27151 42.2259 6.85853C43.2223 6.44665 43.9259 5.60541 44.1553 4.55113C44.3694 3.57113 45.2522 2.85881 46.254 2.85881C47.2559 2.85881 48.1386 3.57004 48.3528 4.55113C48.5822 5.60541 49.2858 6.44665 50.2822 6.85853C51.2785 7.27151 52.37 7.17427 53.2779 6.59196C54.1224 6.04897 55.2499 6.17024 55.9589 6.87929C56.362 7.28134 56.5838 7.82105 56.5838 8.39681C56.5838 8.97366 56.362 9.51227 55.9589 9.91541L50.6984 15.1759H41.8107L36.5491 9.91541C36.146 9.51227 35.9242 8.97366 35.9242 8.39681ZM38.5222 18.0055H53.9858C55.1177 18.0055 56.0376 18.9265 56.0376 20.0573C56.0376 21.1881 55.1177 22.1091 53.9858 22.1091H38.5222C37.3904 22.1091 36.4705 21.1881 36.4705 20.0573C36.4705 18.9265 37.3904 18.0055 38.5222 18.0055ZM26.8836 41.0829C29.4281 36.6167 33.4475 31.4763 39.5099 24.9387H52.9982C59.0606 31.4763 63.0811 36.6167 65.6245 41.0829C69.4712 47.8391 69.2473 55.0912 65.0257 61.028L58.1472 65.0354C57.3333 65.5084 56.5052 65.8427 55.641 66.0394C55.9633 65.527 56.2156 64.9469 56.3883 64.3034C57.2077 61.2443 55.3897 58.0498 52.2487 57.0315C52.1875 57.0119 52.1263 56.9966 52.063 56.9857C51.7352 56.9256 51.4085 56.8622 51.0808 56.7945C51.591 56.4711 52.0389 56.0953 52.406 55.6714C53.3543 54.5745 53.7597 53.199 53.5761 51.6924C53.0178 47.0896 48.0621 46.2757 46.4343 46.0091C42.3231 45.3339 42.2401 43.6328 42.2095 42.9915C42.1199 41.1386 43.6331 40.1269 45.0785 39.7992C45.4182 39.7227 45.7711 39.6779 46.1295 39.6681C46.1786 39.6703 46.2289 39.6703 46.2781 39.667C47.9179 39.6725 49.6135 40.4383 50.4056 42.3229C50.7071 43.0429 51.5364 43.3827 52.2574 43.0789C52.9785 42.7774 53.3172 41.9471 53.0146 41.2271C51.9319 38.6477 49.7949 37.3388 47.6033 36.9619V35.6039C47.6033 34.8217 46.9696 34.1891 46.1874 34.1891C45.4062 34.1891 44.7726 34.8217 44.7726 35.6039V36.9739C44.6655 36.9936 44.5584 37.0154 44.4535 37.0395C41.2787 37.7594 39.2411 40.2067 39.3832 43.1292C39.4858 45.2399 40.7127 47.9374 45.9754 48.8016C49.9544 49.4549 50.6263 50.8719 50.7672 52.0343C50.8535 52.7456 50.6897 53.3301 50.2658 53.8206C48.8171 55.4955 45.8542 55.6386 43.9248 54.8279C43.0387 54.4554 41.9222 53.6961 41.5442 52.1753C41.3552 51.4171 40.5871 50.956 39.8289 51.145C39.0707 51.334 38.6086 52.1021 38.7976 52.8603C38.8129 52.9226 38.8303 52.9827 38.8478 53.0438C37.7171 52.6363 36.6529 52.2539 35.7341 51.9568C31.6262 50.6239 27.9117 52.2747 24.8198 54.0643L24.503 54.2478C23.6148 49.917 24.4243 45.4027 26.8836 41.0829ZM22.1563 85.0864L17.6496 87.6364C17.2028 87.8898 16.6095 87.726 16.3561 87.278L3.10703 63.8675C2.85247 63.4195 3.01744 62.8274 3.46538 62.5728L7.97203 60.0229C8.4156 59.7716 9.01211 59.9322 9.26667 60.3812L22.5157 83.7918C22.7692 84.2397 22.6042 84.833 22.1563 85.0864ZM84.347 62.1686L55.1985 80.1165C52.8845 81.5412 50.3455 81.8974 47.6514 81.1752L26.51 75.5105C26.1472 75.4132 25.7605 75.4635 25.436 75.6514L22.2131 77.512L14.2551 63.4501L26.2379 56.5126C28.9179 54.9612 31.8185 53.6611 34.8612 54.6477C35.8379 54.9645 36.9632 55.3709 38.2666 55.8429C42.0008 57.1932 46.643 58.8714 51.4588 59.7508C53.1435 60.3397 54.0852 61.9665 53.6548 63.5703C53.0899 65.681 51.3321 65.9433 49.9336 65.7826C47.5672 65.2954 45.3188 64.6541 42.9393 63.9745C41.8118 63.6522 40.645 63.319 39.4465 62.9978C38.6905 62.7968 37.9159 63.2436 37.7127 63.9986C37.5106 64.7535 37.9596 65.5292 38.7134 65.7324C39.8901 66.047 41.046 66.377 42.1625 66.696C44.6141 67.3963 46.9292 68.0573 49.4223 68.5675C49.4322 68.5686 51.4763 68.9018 51.4763 68.9018C54.46 69.3792 57.1082 68.9149 59.5719 67.4804L75.633 58.1252C80.2621 55.4288 83.8259 55.1568 85.1675 57.3964C86.0929 58.9402 85.6788 61.3492 84.347 62.1686ZM9.28415 64.5536C9.41307 65.432 8.80453 66.2492 7.92505 66.3781C7.04666 66.5059 6.22946 65.8974 6.10054 65.019C5.97162 64.1395 6.58016 63.3223 7.45964 63.1934C8.33912 63.0655 9.15633 63.6741 9.28415 64.5536Z" fill="black"/>
</g>
</svg>
